<?xml version="1.0" standalone="no"?>
<!DOCTYPE svg PUBLIC "-//W3C//DTD SVG 1.0//EN" "http://www.w3.org/TR/2001/REC-SVG-20010904/DTD/svg10.dtd">
<svg xmlns="http://www.w3.org/2000/svg" xmlns:xlink="http://www.w3.org/1999/xlink" id="body_1" width="16" height="16">

<g transform="matrix(1 0 0 1 0 0)">
    <path d="M11 6C 11 7.071797 10.428204 8.062178 9.5 8.598076C 8.571796 9.133974 7.428203 9.133974 6.4999995 8.598076C 5.5717964 8.062178 5 7.071797 5 6C 5 4.3431454 6.343146 3 8 3C 9.656855 3 11 4.3431454 11 6z" stroke="none" fill="#000000" fill-rule="nonzero" fill-opacity="0" />
    <path d="M0 8C 0 5.1418753 1.5247912 2.5008588 4 1.0717964C 6.475209 -0.35726547 9.524792 -0.35726547 12.000001 1.0717969C 14.47521 2.5008597 16 5.1418753 16 8C 16 12.418278 12.418278 16 7.9999995 16C 3.5817213 16 0 12.418278 0 8zM8 1C 5.3098936 1.0001435 2.8578587 2.5418663 1.6919641 4.966193C 0.52606964 7.3905206 0.85260487 10.268499 2.532 12.37C 3.242 11.226 4.805 10 8 10C 11.195 10 12.757 11.225 13.468 12.37C 15.147395 10.268499 15.47393 7.390521 14.308036 4.966194C 13.142141 2.5418668 10.690106 1.000143 8 1z" stroke="none" fill="#000000" fill-rule="nonzero" fill-opacity="0" />
</g>
</svg>